<?xml version="1.0" encoding="utf-8"?>
<!-- Generator: Adobe Illustrator 26.0.3, SVG Export Plug-In . SVG Version: 6.00 Build 0)  -->
<svg version="1.1" id="Layer_1" xmlns="http://www.w3.org/2000/svg" xmlns:xlink="http://www.w3.org/1999/xlink" x="0px" y="0px"
	 viewBox="0 0 228.8 55.4" style="enable-background:new 0 0 228.8 55.4;" xml:space="preserve">
<style type="text/css">
	.st0{fill:#FFCC99;}
	.st1{fill:#FFFFFF;}
	.st2{fill:#FFB871;}
	.st3{fill:#FF9933;}
</style>
<path class="st0" d="M156.2,54.9c0.3,0,0.7-0.1,1-0.2c1.9-1,3.9-1.9,5.9-2.7c1-0.4,1.6-1.6,1.1-2.7c-0.4-1-1.6-1.6-2.7-1.1
	c-1.5,0.6-2.9,1.2-4.3,1.9l-6-12.7c-0.5-1-1.7-1.5-2.7-1s-1.5,1.7-1,2.7l6.8,14.5c0.2,0.5,0.7,0.9,1.2,1.1
	C155.7,54.8,155.9,54.9,156.2,54.9z"/>
<path class="st0" d="M134.2,55.4c0.5,0,1.1-0.2,1.5-0.7c0.8-0.8,0.7-2.1-0.1-2.9c-1.2-1.1-2.4-2.1-3.6-3.1l8.9-10.7
	c0.7-0.9,0.6-2.2-0.3-2.9s-2.2-0.6-2.9,0.3l-10.2,12.3c-0.4,0.4-0.5,1-0.5,1.5c0.1,0.6,0.4,1.1,0.8,1.4c1.7,1.3,3.4,2.7,5,4.2
	C133.2,55.2,133.7,55.4,134.2,55.4z"/>
<path class="st0" d="M208.3,55c-0.5-0.3-0.8-0.8-0.9-1.4l-2.8-15.8c-0.2-1.1,0.5-2.2,1.7-2.4c1.1-0.2,2.2,0.5,2.4,1.7l2.4,13.7
	c1.6-0.3,3.1-0.5,4.7-0.7c1.1-0.1,2.1,0.6,2.3,1.8c0.1,1.1-0.6,2.1-1.8,2.3c-2.2,0.3-4.3,0.6-6.4,1.1c-0.3,0.1-0.7,0.1-1,0
	C208.6,55.2,208.4,55.1,208.3,55z"/>
<path class="st0" d="M198.2,55.2c-2-0.7-4.2-1.2-6.3-1.7c-0.5-0.1-1-0.5-1.3-0.9c-0.3-0.5-0.4-1-0.2-1.6l4.2-15.5
	c0.3-1.1,1.4-1.7,2.5-1.4c1.1,0.3,1.7,1.4,1.4,2.5L194.9,50c1.5,0.4,3.1,0.8,4.6,1.3c1.1,0.3,1.7,1.5,1.3,2.6
	c-0.2,0.5-0.6,1-1.1,1.2C199.3,55.3,198.7,55.4,198.2,55.2z"/>
<path class="st1" d="M153.2,12.1c0,3.2-2.6,5.7-5.7,5.7c-3.2,0-5.7-2.6-5.7-5.7c0-3.2,2.6-5.7,5.7-5.7C150.7,6.4,153.2,9,153.2,12.1
	z"/>
<path class="st2" d="M115.5,21.4c2.2,0,6.3,3.7,15.1,3.7s9.3-5.4,17-5.4c6.8,0,12.3,5.5,12.3,12.3s-5.5,12.3-14.5,12.3
	c-13.1,0-30.9-13.4-30.9-21.6C114.4,22,114.9,21.4,115.5,21.4z"/>
<path class="st3" d="M154.3,9.6c0,2.4-1.9,4.3-4.3,4.3s-4.3-1.9-4.3-4.3c0-2.4,1.9-4.3,4.3-4.3S154.3,7.2,154.3,9.6z"/>
<path class="st2" d="M171.6,14.5c0,1.2-1.5,2.7-10.6,8c-7.6,4.4-10.6,5.4-14.5,5.4l13.2-17.7l10.1,2.6
	C171.1,13.2,171.6,13.8,171.6,14.5z"/>
<path class="st2" d="M160.4,14c0,7.7-6.3,14-14,14s-14-6.3-14-14s6.3-14,14-14C154.2,0,160.4,6.3,160.4,14z M147.5,6.4
	c-3.2,0-5.7,2.6-5.7,5.7c0,3.2,2.6,5.7,5.7,5.7c3.2,0,5.7-2.6,5.7-5.7S150.7,6.4,147.5,6.4z"/>
<g>
	<g>
		<path class="st1" d="M210.4,12.1c0,3.2-2.6,5.7-5.7,5.7c-3.2,0-5.7-2.6-5.7-5.7c0-3.2,2.6-5.7,5.7-5.7
			C207.9,6.4,210.4,9,210.4,12.1z"/>
		<path class="st2" d="M172.7,21.4c2.2,0,6.3,3.7,15.1,3.7s9.3-5.4,17-5.4c6.8,0,12.3,5.5,12.3,12.3s-5.5,12.3-14.5,12.3
			c-13.1,0-30.9-13.4-30.9-21.6C171.6,22,172.1,21.4,172.7,21.4z"/>
		<path class="st3" d="M202.2,5.3c2.4,0,4.3,1.9,4.3,4.3c0,2.4-1.9,4.3-4.3,4.3s-4.3-1.9-4.3-4.3S199.8,5.3,202.2,5.3z"/>
		<path class="st2" d="M183.7,5.2c0-0.2,0.2-0.4,0.4-0.4c0.6,0,2.1,0.4,3.7,0.4c6.7,0,7.9-5.2,15.8-5.2l-9.4,11.6
			C189.2,11.6,183.7,7.7,183.7,5.2z"/>
		<path class="st2" d="M228.8,14.5c0,1.2-1.5,2.7-10.6,8c-7.6,4.4-10.6,5.4-14.5,5.4l13.2-17.7l10.1,2.6
			C228.3,13.2,228.8,13.8,228.8,14.5z"/>
		<path class="st2" d="M217.7,14c0,7.7-6.3,14-14,14s-14-6.3-14-14s6.3-14,14-14S217.7,6.3,217.7,14z M204.7,6.4
			c-3.2,0-5.7,2.6-5.7,5.7c0,3.2,2.6,5.7,5.7,5.7c3.2,0,5.7-2.6,5.7-5.7S207.9,6.4,204.7,6.4z"/>
	</g>
</g>
<path class="st0" d="M93.9,55c-0.5-0.3-0.8-0.8-0.9-1.4l-2.8-15.8c-0.2-1.1,0.5-2.2,1.7-2.4c1.1-0.2,2.2,0.5,2.4,1.7l2.4,13.7
	c1.6-0.3,3.1-0.5,4.7-0.7c1.1-0.1,2.1,0.6,2.3,1.8c0.1,1.1-0.6,2.1-1.8,2.3c-2.2,0.3-4.3,0.6-6.4,1.1c-0.3,0.1-0.7,0.1-1,0
	C94.2,55.2,94,55.1,93.9,55z"/>
<path class="st0" d="M83.8,55.2c-2-0.7-4.2-1.2-6.3-1.7c-0.5-0.1-1-0.5-1.3-0.9c-0.3-0.5-0.4-1-0.2-1.6l4.2-15.5
	c0.3-1.1,1.4-1.7,2.5-1.4c1.1,0.3,1.7,1.4,1.4,2.5L80.5,50c1.5,0.4,3.1,0.8,4.6,1.3c1.1,0.3,1.7,1.5,1.3,2.6c-0.2,0.5-0.6,1-1.1,1.2
	C84.9,55.3,84.3,55.4,83.8,55.2z"/>
<g>
	<g>
		<path class="st1" d="M96,12.1c0,3.2-2.6,5.7-5.7,5.7c-3.2,0-5.7-2.6-5.7-5.7c0-3.2,2.6-5.7,5.7-5.7C93.5,6.4,96,9,96,12.1z"/>
		<path class="st2" d="M58.3,21.4c2.2,0,6.3,3.7,15.1,3.7s9.3-5.4,17-5.4c6.8,0,12.3,5.5,12.3,12.3s-5.5,12.3-14.5,12.3
			c-13.1,0-30.9-13.4-30.9-21.6C57.2,22,57.7,21.4,58.3,21.4z"/>
		<path class="st3" d="M87.8,5.3c2.4,0,4.3,1.9,4.3,4.3c0,2.4-1.9,4.3-4.3,4.3s-4.3-1.9-4.3-4.3S85.4,5.3,87.8,5.3z"/>
		<path class="st2" d="M114.4,14.5c0,1.2-1.5,2.7-10.6,8c-7.6,4.4-10.6,5.4-14.5,5.4l13.2-17.7l10.1,2.6
			C113.9,13.2,114.4,13.8,114.4,14.5z"/>
		<path class="st2" d="M103.3,14c0,7.7-6.3,14-14,14s-14-6.3-14-14s6.3-14,14-14S103.3,6.3,103.3,14z M90.3,6.4
			c-3.2,0-5.7,2.6-5.7,5.7c0,3.2,2.6,5.7,5.7,5.7c3.2,0,5.7-2.6,5.7-5.7S93.5,6.4,90.3,6.4z"/>
	</g>
</g>
<path class="st0" d="M41.8,54.9c0.3,0,0.7-0.1,1-0.2c1.9-1,3.9-1.9,5.9-2.7c1-0.4,1.6-1.6,1.1-2.7c-0.4-1-1.6-1.6-2.7-1.1
	c-1.5,0.6-2.9,1.2-4.3,1.9l-6-12.7c-0.5-1-1.7-1.5-2.7-1s-1.5,1.7-1,2.7l6.8,14.5c0.2,0.5,0.7,0.9,1.2,1.1
	C41.3,54.8,41.5,54.9,41.8,54.9z"/>
<path class="st0" d="M19.8,55.4c0.5,0,1.1-0.2,1.5-0.7c0.8-0.8,0.7-2.1-0.1-2.9c-1.2-1.1-2.4-2.1-3.6-3.1L26.5,38
	c0.7-0.9,0.6-2.2-0.3-2.9s-2.2-0.6-2.9,0.3L13.1,47.7c-0.4,0.4-0.5,1-0.5,1.5c0.1,0.6,0.4,1.1,0.8,1.4c1.7,1.3,3.4,2.7,5,4.2
	C18.8,55.2,19.3,55.4,19.8,55.4z"/>
<path class="st1" d="M38.8,12.1c0,3.2-2.6,5.7-5.7,5.7c-3.2,0-5.7-2.6-5.7-5.7c0-3.2,2.6-5.7,5.7-5.7C36.3,6.4,38.8,9,38.8,12.1z"/>
<path class="st2" d="M1.1,21.4c2.2,0,6.3,3.7,15.1,3.7s9.3-5.4,17-5.4c6.8,0,12.3,5.5,12.3,12.3S40,44.3,31,44.3
	c-13.1,0-30.9-13.4-30.9-21.6C0,22,0.5,21.4,1.1,21.4z"/>
<path class="st3" d="M39.9,9.6c0,2.4-1.9,4.3-4.3,4.3s-4.3-1.9-4.3-4.3c0-2.4,1.9-4.3,4.3-4.3S39.9,7.2,39.9,9.6z"/>
<path class="st2" d="M57.2,14.5c0,1.2-1.5,2.7-10.6,8C39,26.9,36,27.9,32.1,27.9l13.2-17.7l10.1,2.6C56.7,13.2,57.2,13.8,57.2,14.5z
	"/>
<path class="st2" d="M46,14c0,7.7-6.3,14-14,14s-14-6.3-14-14S24.3,0,32,0C39.8,0,46,6.3,46,14z M33.1,6.4c-3.2,0-5.7,2.6-5.7,5.7
	c0,3.2,2.6,5.7,5.7,5.7c3.2,0,5.7-2.6,5.7-5.7S36.3,6.4,33.1,6.4z"/>
</svg>
