<?xml version="1.0" encoding="utf-8"?>
<!-- Generator: Adobe Illustrator 26.0.3, SVG Export Plug-In . SVG Version: 6.00 Build 0)  -->
<svg version="1.1" id="Layer_1" xmlns="http://www.w3.org/2000/svg" xmlns:xlink="http://www.w3.org/1999/xlink" x="0px" y="0px"
	 viewBox="0 0 517.2 517.2" style="enable-background:new 0 0 517.2 517.2;" xml:space="preserve">
<style type="text/css">
	.st0{fill:#FFCC99;}
	.st1{fill:#FFFFFF;}
	.st2{fill:#FFB871;}
	.st3{fill:#FF9933;}
</style>
<circle class="st0" cx="220.2" cy="409.7" r="12.3"/>
<circle class="st0" cx="280.8" cy="401.1" r="12.3"/>
<g>
	<path class="st1" d="M197.1,256.2c0,19,15.4,34.5,34.5,34.5c19,0,34.5-15.4,34.5-34.5c0-19-15.4-34.5-34.5-34.5
		C212.6,221.7,197.1,237.2,197.1,256.2z"/>
	<path class="st0" d="M206.6,516.8c-1.9,0.5-4,0.6-6,0.1c-12.7-2.9-25.6-5.1-38.6-6.8c-6.8-0.9-11.6-7-10.7-13.8
		c0.9-6.8,7-11.6,13.8-10.7c9.5,1.2,18.9,2.7,28.3,4.5l14.5-82.5c1.2-6.7,7.5-11.2,14.3-10c6.7,1.2,11.2,7.5,10,14.3L215.4,507
		c-0.5,3.4-2.6,6.3-5.4,8.2C209.2,515.9,208,516.4,206.6,516.8z"/>
	<path class="st0" d="M261.6,516c-3-1.4-5.4-4-6.5-7.3c-2.1-6.5,1.4-13.5,7.9-15.6c9.1-2.9,18.4-5.6,27.6-7.9l-21.7-81
		c-1.8-6.6,2.1-13.3,8.7-15.1s13.3,2.1,15.1,8.7l25,93.3c0.9,3.3,0.4,6.8-1.4,9.6c-1.8,2.9-4.6,4.9-7.9,5.7
		c-12.7,2.7-25.5,6.1-37.8,10.2C267.5,517.6,264.3,517.3,261.6,516z"/>
	<path class="st2" d="M424.3,312.4c-13.1,0-37.8,22.5-91,22.5c-52.8,0-56.3-32.6-102.2-32.6c-40.9,0-74.1,33.2-74.1,74.1
		s33.2,74.1,87.6,74.1c79.1,0,186.5-80.9,186.5-130.3C431,315.9,428,312.4,424.3,312.4z"/>
	<path class="st3" d="M190.4,241c0,14.3,11.6,25.9,25.9,25.9s25.9-11.6,25.9-25.9c0-14.3-11.6-25.9-25.9-25.9
		C202.1,215.1,190.5,226.7,190.4,241z"/>
	<path class="st2" d="M358,214.6c0-1.2-1-2.2-2.2-2.2c-3.5,0-12.6,2.2-22.5,2.2c-40.6,0-47.3-31.5-95.5-31.5l56.7,69.6
		C324.9,252.8,358,229.5,358,214.6z"/>
	<path class="st2" d="M86.2,270.8c0,7.4,9.2,16.4,64,48.3c45.7,26.6,63.7,32.6,87.6,32.6L158.1,245l-60.7,15.7
		C89.2,262.9,86.2,266.3,86.2,270.8z"/>
	<path class="st2" d="M237.8,183.2c46.5,0,84.2,37.7,84.2,84.2s-37.7,84.2-84.2,84.2s-84.2-37.7-84.2-84.2S191.3,183.2,237.8,183.2z
		 M197.1,256.2c0,19,15.4,34.5,34.5,34.5c19,0,34.5-15.4,34.5-34.5c0-19-15.4-34.5-34.5-34.5C212.6,221.7,197.1,237.2,197.1,256.2z"
		/>
</g>
</svg>
