<?xml version="1.0" encoding="utf-8"?>
<!-- Generator: Adobe Illustrator 26.0.2, SVG Export Plug-In . SVG Version: 6.00 Build 0)  -->
<svg version="1.1" id="Layer_1" xmlns="http://www.w3.org/2000/svg" xmlns:xlink="http://www.w3.org/1999/xlink" x="0px" y="0px"
	 viewBox="0 0 517.2 517.2" style="enable-background:new 0 0 517.2 517.2;" xml:space="preserve">
<style type="text/css">
	.st0{fill:#FFB871;}
	.st1{fill:#FF9933;}
	.st2{fill:#FFFFFF;}
	.st3{fill:#FFCC99;}
</style>
<g>
	<g>
		<path class="st0" d="M99.1,228.4c-2.7,0-5.4-1.3-7-3.6l-40.5-56.7H38.8C17.4,168.1,0,150.7,0,129.3V38.8C0,17.4,17.4,0,38.8,0
			h439.7c21.4,0,38.8,17.4,38.8,38.8v90.5c0,21.4-17.4,38.8-38.8,38.8H107.8v51.7c0,3.7-2.4,7.1-6,8.2
			C100.9,228.3,100,228.4,99.1,228.4z M38.8,17.2c-11.9,0-21.6,9.7-21.6,21.6v90.5c0,11.9,9.7,21.6,21.6,21.6H56
			c2.8,0,5.4,1.3,7,3.6l27.5,38.5v-33.4c0-4.8,3.9-8.6,8.6-8.6h379.3c11.9,0,21.6-9.7,21.6-21.6V38.8c0-11.9-9.7-21.6-21.6-21.6
			H38.8z"/>
	</g>
	<g>
		<path class="st1" d="M73.7,41.8c24.3,0,35.4,8.3,35.4,26.4c0,13.2-5.9,21.2-18.5,24.5l23.9,29.1H89.9L68.3,94.4
			c-0.1,0-0.1,0-0.2,0v27.3H46.5V43.4C55.7,42.5,67.1,41.8,73.7,41.8z M74.8,78.8c8.4,0,12.2-3,12.2-9.8s-3.8-9.8-12.2-9.8
			c-1.7,0-4.1,0.1-6.7,0.3v19C70.7,78.7,73.1,78.8,74.8,78.8z"/>
		<path class="st1" d="M123.6,42.9h57.2v17.3h-35.6v12.7h33.5v16.6h-33.5v14.9h35.6v17.3h-57.2V42.9z"/>
		<path class="st1" d="M192.8,42.9h21.6L238,85h0.2V42.9h21.6v78.8h-21.6l-23.5-42.1h-0.2v42.1h-21.6V42.9z"/>
		<path class="st1" d="M272.8,42.9H330v17.3h-35.6v12.7h33.5v16.6h-33.5v14.9H330v17.3h-57.2V42.9z"/>
		<path class="st1" d="M338.1,42.9h22.1l7.5,56.2h0.2l6.9-49.7h25.9l6.9,49.7h0.2l7.5-56.2h22.1l-16.2,78.8h-25.9l-7.5-49.7h-0.2
			l-7.5,49.7h-25.9L338.1,42.9z"/>
		<path class="st1" d="M447.2,42.9h25.9l-3.2,51.8h-19.4L447.2,42.9z M448.3,112c0-6.8,4.4-10.8,11.9-10.8s11.9,4,11.9,10.8
			s-4.4,10.8-11.9,10.8S448.3,118.9,448.3,112z"/>
	</g>
	<g>
		<path class="st2" d="M197.1,256.2c0,19,15.4,34.5,34.5,34.5c19,0,34.5-15.4,34.5-34.5c0-19-15.4-34.5-34.5-34.5
			C212.6,221.7,197.1,237.2,197.1,256.2z"/>
		<path class="st3" d="M179.4,513.9c-2,0-4-0.5-5.8-1.4c-11.5-6.1-23.4-11.6-35.5-16.6c-6.3-2.6-9.4-9.8-6.8-16.1
			c2.6-6.3,9.8-9.4,16.1-6.8c8.9,3.6,17.6,7.5,26.2,11.7l35.4-75.9c2.9-6.2,10.2-8.9,16.4-6c6.2,2.9,8.9,10.2,6,16.4l-40.8,87.5
			c-1.4,3.1-4.1,5.4-7.3,6.5C182.1,513.7,180.8,513.9,179.4,513.9z"/>
		<path class="st3" d="M312,517.2c-3.3,0-6.6-1.3-9-3.9c-4.6-5-4.4-12.8,0.6-17.5c7-6.5,14.3-12.8,21.7-18.8l-53.9-64.2
			c-4.4-5.2-3.7-13,1.5-17.4c5.2-4.4,13-3.7,17.4,1.5l62.1,74c2.2,2.6,3.2,6,2.8,9.3c-0.4,3.4-2.1,6.4-4.8,8.5
			c-10.4,7.8-20.5,16.3-30,25.2C318,516.1,315,517.2,312,517.2z"/>
		<path class="st0" d="M424.3,312.4c-13.1,0-37.8,22.5-91,22.5c-52.8,0-56.3-32.6-102.2-32.6c-40.9,0-74.1,33.2-74.1,74.1
			c0,40.9,33.2,74.1,87.6,74.1c79.1,0,186.5-80.9,186.5-130.3C431,315.9,428,312.4,424.3,312.4z"/>
		<path class="st1" d="M246.9,215.1c-14.3,0-25.9,11.6-25.9,25.9c0,14.3,11.6,25.9,25.9,25.9c14.3,0,25.9-11.6,25.9-25.9
			C272.7,226.7,261.1,215.1,246.9,215.1z"/>
		<path class="st0" d="M358,214.6c0-1.2-1-2.2-2.2-2.2c-3.5,0-12.6,2.2-22.5,2.2c-40.6,0-47.3-31.5-95.5-31.5l56.7,69.6
			C324.9,252.8,358,229.5,358,214.6z"/>
		<path class="st0" d="M86.2,270.8c0,7.4,9.2,16.4,64,48.3c45.7,26.6,63.7,32.6,87.6,32.6L158.1,245l-60.7,15.7
			C89.2,262.9,86.2,266.3,86.2,270.8z"/>
		<path class="st0" d="M237.8,183.2c46.5,0,84.2,37.7,84.2,84.2c0,46.5-37.7,84.2-84.2,84.2c-46.5,0-84.2-37.7-84.2-84.2
			C153.6,220.9,191.3,183.2,237.8,183.2z M197.1,256.2c0,19,15.4,34.5,34.5,34.5c19,0,34.5-15.4,34.5-34.5c0-19-15.4-34.5-34.5-34.5
			C212.6,221.7,197.1,237.2,197.1,256.2z"/>
	</g>
</g>
</svg>
