<?xml version="1.0" encoding="utf-8"?>
<!-- Generator: Adobe Illustrator 26.1.0, SVG Export Plug-In . SVG Version: 6.00 Build 0)  -->
<svg version="1.1" id="Layer_1" xmlns="http://www.w3.org/2000/svg" xmlns:xlink="http://www.w3.org/1999/xlink" x="0px" y="0px"
	 viewBox="0 0 517.2 517.2" style="enable-background:new 0 0 517.2 517.2;" xml:space="preserve">
<style type="text/css">
	.st0{fill:#FFB871;}
	.st1{fill:#FFFFFF;}
	.st2{fill:#FFCC99;}
	.st3{fill:#FF9933;}
</style>
<g>
	<path class="st0" d="M99.1,228.4c-2.7,0-5.4-1.3-7-3.6l-40.5-56.7H38.8C17.4,168.1,0,150.7,0,129.3V38.8C0,17.4,17.4,0,38.8,0
		h439.7c21.4,0,38.8,17.4,38.8,38.8v90.5c0,21.4-17.4,38.8-38.8,38.8H107.8v51.7c0,3.7-2.4,7.1-6,8.2
		C100.9,228.3,100,228.4,99.1,228.4z M38.8,17.2c-11.9,0-21.6,9.7-21.6,21.6v90.5c0,11.9,9.7,21.6,21.6,21.6H56c2.8,0,5.4,1.3,7,3.6
		L90.5,193v-33.4c0-4.8,3.9-8.6,8.6-8.6h379.3c11.9,0,21.6-9.7,21.6-21.6V38.8c0-11.9-9.7-21.6-21.6-21.6
		C478.4,17.2,38.8,17.2,38.8,17.2z"/>
</g>
<g>
	<path class="st1" d="M197.1,256.2c0,19,15.4,34.5,34.5,34.5c19,0,34.5-15.4,34.5-34.5c0-19-15.4-34.5-34.5-34.5
		C212.6,221.7,197.1,237.2,197.1,256.2z"/>
	<path class="st2" d="M179.4,513.9c-2,0-4-0.5-5.8-1.4c-11.5-6.1-23.4-11.6-35.5-16.6c-6.3-2.6-9.4-9.8-6.8-16.1
		c2.6-6.3,9.8-9.4,16.1-6.8c8.9,3.6,17.6,7.5,26.2,11.7l35.4-75.9c2.9-6.2,10.2-8.9,16.4-6s8.9,10.2,6,16.4l-40.8,87.5
		c-1.4,3.1-4.1,5.4-7.3,6.5C182.1,513.7,180.8,513.9,179.4,513.9z"/>
	<path class="st2" d="M312,517.2c-3.3,0-6.6-1.3-9-3.9c-4.6-5-4.4-12.8,0.6-17.5c7-6.5,14.3-12.8,21.7-18.8l-53.9-64.2
		c-4.4-5.2-3.7-13,1.5-17.4s13-3.7,17.4,1.5l62.1,74c2.2,2.6,3.2,6,2.8,9.3c-0.4,3.4-2.1,6.4-4.8,8.5c-10.4,7.8-20.5,16.3-30,25.2
		C318,516.1,315,517.2,312,517.2z"/>
	<path class="st0" d="M424.3,312.4c-13.1,0-37.8,22.5-91,22.5c-52.8,0-56.3-32.6-102.2-32.6c-40.9,0-74.1,33.2-74.1,74.1
		s33.2,74.1,87.6,74.1c79.1,0,186.5-80.9,186.5-130.3C431,315.9,428,312.4,424.3,312.4z"/>
	<path class="st3" d="M246.9,215.1c-14.3,0-25.9,11.6-25.9,25.9c0,14.3,11.6,25.9,25.9,25.9s25.9-11.6,25.9-25.9
		C272.7,226.7,261.1,215.1,246.9,215.1z"/>
	<path class="st0" d="M358,214.6c0-1.2-1-2.2-2.2-2.2c-3.5,0-12.6,2.2-22.5,2.2c-40.6,0-47.3-31.5-95.5-31.5l56.7,69.6
		C324.9,252.8,358,229.5,358,214.6z"/>
	<path class="st0" d="M86.2,270.8c0,7.4,9.2,16.4,64,48.3c45.7,26.6,63.7,32.6,87.6,32.6L158.1,245l-60.7,15.7
		C89.2,262.9,86.2,266.3,86.2,270.8z"/>
	<path class="st0" d="M237.8,183.2c46.5,0,84.2,37.7,84.2,84.2s-37.7,84.2-84.2,84.2s-84.2-37.7-84.2-84.2S191.3,183.2,237.8,183.2z
		 M197.1,256.2c0,19,15.4,34.5,34.5,34.5c19,0,34.5-15.4,34.5-34.5c0-19-15.4-34.5-34.5-34.5C212.6,221.7,197.1,237.2,197.1,256.2z"
		/>
</g>
<g>
	<path class="st3" d="M107.2,90.4H84.5v31.3H63V42.9h21.6V72h22.7V42.9h21.6v78.8h-21.6V90.4z"/>
	<path class="st3" d="M141.7,42.9h57.2v17.3h-35.6v12.7h33.5v16.6h-33.5v14.9h35.6v17.3h-57.2V42.9z"/>
	<path class="st3" d="M210.9,42.9H233v60.4h37.2v18.4h-59.4V42.9z"/>
	<path class="st3" d="M279.3,42.9h22.1v60.4h37.2v18.4h-59.4V42.9z"/>
	<path class="st3" d="M339.1,82.3c0-25.5,15.2-40.5,41-40.5c25.8,0,41,15,41,40.5c0,25.5-15.2,40.5-41,40.5
		C354.3,122.8,339.1,107.8,339.1,82.3z M399,82.3c0-14.7-6.4-22.1-18.9-22.1c-12.5,0-18.9,7.4-18.9,22.1c0,14.7,6.4,22.1,18.9,22.1
		C392.7,104.4,399,97,399,82.3z"/>
	<path class="st3" d="M431.5,42.9h25.9l-3.2,51.8h-19.4L431.5,42.9z M432.6,112c0-6.8,4.4-10.8,11.9-10.8s11.9,4,11.9,10.8
		c0,6.8-4.4,10.8-11.9,10.8S432.6,118.8,432.6,112z"/>
</g>
</svg>
