<?xml version="1.0" encoding="utf-8"?>
<!-- Generator: Adobe Illustrator 26.0.2, SVG Export Plug-In . SVG Version: 6.00 Build 0)  -->
<svg version="1.1" id="Layer_1" xmlns="http://www.w3.org/2000/svg" xmlns:xlink="http://www.w3.org/1999/xlink" x="0px" y="0px"
	 viewBox="0 0 344.9 267.4" style="enable-background:new 0 0 344.9 267.4;" xml:space="preserve">
<style type="text/css">
	.st0{fill:#FFFFFF;}
	.st1{fill:#FFB871;}
	.st2{fill:#FF9933;}
</style>
<g>
	<path class="st0" d="M199.5,38.6c-19.1,0-34.5,15.5-34.5,34.5c0,19.1,15.5,34.5,34.5,34.5c19.1,0,34.5-15.5,34.5-34.5
		S218.5,38.6,199.5,38.6z"/>
	<path class="st1" d="M0,137.1c0,49.4,107.4,130.3,186.5,130.3c54.4,0,87.6-33.2,87.6-74.1s-33.2-74.1-74.1-74.1
		c-45.9,0-49.4,32.6-102.2,32.6c-53.2,0-77.9-22.5-91-22.5C3.1,129.3,0.1,132.8,0,137.1z"/>
	<path class="st2" d="M159.6,91.5c10.1,10.1,26.5,10.1,36.6,0s10.1-26.5,0-36.6c-10.1-10.1-26.5-10.1-36.6,0
		C149.6,64.9,149.6,81.3,159.6,91.5z"/>
	<path class="st1" d="M136.6,69.6L193.3,0c-48.2,0-54.9,31.5-95.5,31.5c-9.9,0-19-2.2-22.5-2.2c-1.2,0-2.2,1-2.2,2.2
		C73.1,46.4,106.2,69.7,136.6,69.6z"/>
	<path class="st1" d="M333.7,77.6L273,61.9l-79.7,106.7c23.9,0,41.9-6,87.6-32.6c54.8-31.9,64-40.9,64-48.3
		C344.9,83.2,341.9,79.8,333.7,77.6z"/>
	<path class="st1" d="M277.5,84.3c0,46.5-37.7,84.2-84.2,84.2s-84.2-37.7-84.2-84.2s37.7-84.2,84.2-84.2S277.5,37.8,277.5,84.3z
		 M199.5,38.6c-19.1,0-34.5,15.5-34.5,34.5c0,19.1,15.5,34.5,34.5,34.5c19.1,0,34.5-15.5,34.5-34.5S218.5,38.6,199.5,38.6z"/>
</g>
</svg>
