<?xml version="1.0" encoding="utf-8"?>
<!-- Generator: Adobe Illustrator 26.0.3, SVG Export Plug-In . SVG Version: 6.00 Build 0)  -->
<svg version="1.1" id="Layer_1" xmlns="http://www.w3.org/2000/svg" xmlns:xlink="http://www.w3.org/1999/xlink" x="0px" y="0px"
	 viewBox="0 0 250 171.4" style="enable-background:new 0 0 250 171.4;" xml:space="preserve">
<style type="text/css">
	.st0{fill:#4DB8FF;}
	.st1{fill:#0099FF;}
	.st2{fill:#FFFFFF;}
	.st3{fill-rule:evenodd;clip-rule:evenodd;fill:#0099FF;}
</style>
<g>
	<path class="st0" d="M92.9,171.1h-80c-7.1,0-12.9-5.8-12.9-12.9v-30c0-7.1,5.8-12.9,12.9-12.9h58.5l13.4-18.8c0.7-1,2-1.4,3.2-1.1
		c1.2,0.4,2,1.5,2,2.7v17.1h2.9c7.1,0,12.9,5.8,12.9,12.9v30C105.7,165.3,99.9,171.1,92.9,171.1z M12.9,121.1
		c-3.9,0-7.1,3.2-7.1,7.1v30c0,3.9,3.2,7.1,7.1,7.1h80c3.9,0,7.1-3.2,7.1-7.1v-30c0-3.9-3.2-7.1-7.1-7.1h-5.7
		c-1.6,0-2.9-1.3-2.9-2.9v-11.1l-9.1,12.7c-0.5,0.8-1.4,1.2-2.3,1.2h-60V121.1z"/>
</g>
<g>
	<path class="st1" d="M26,146.8l-8.8-17.1h7.9l4.6,11.1h0.1l4.6-11.1h7.9l-8.8,17.1v8.9H26V146.8z"/>
	<path class="st1" d="M44.5,129.6h18.9v5.7H51.6v4.2h11.1v5.5H51.6v4.9h11.8v5.7H44.5V129.6z"/>
	<path class="st1" d="M66.2,153.8l1.5-6.1c2.5,1.4,6.4,2.5,9,2.5c2.1,0,3.2-0.7,3.2-2s-1.1-1.9-5.6-3.1c-5.6-1.5-8.1-4.1-8.1-8.1
		c0-4.9,4-7.7,11.1-7.7c3.5,0,7.1,0.6,9.6,1.7l-1.5,6.1c-2.6-1.2-5.5-1.9-8.2-1.9c-2.4,0-3.5,0.5-3.5,1.8c0,1.4,1,2,5.2,3.3
		c6.1,1.8,8.5,4.1,8.5,8c0,5-4,7.9-11.2,7.9C72.3,156.1,68.5,155.2,66.2,153.8z"/>
</g>
<g>
	<circle class="st2" cx="135.8" cy="40" r="8.6"/>
	<circle class="st2" cx="162.9" cy="40" r="8.6"/>
	<circle class="st3" cx="131.5" cy="35.7" r="7.1"/>
	<circle class="st3" cx="158.6" cy="35.7" r="7.1"/>
	<path class="st0" d="M202.7,2.1c-14.8,0-17.2-2.1-31.4-2.1C88.4,0,139,90.4,53.8,90.4c-21.4,0-36.4-15-36.4-33.5s15-33.5,33.5-33.5
		c10.5,0,18.9,8.5,18.9,18.9c0,10.5-8.5,18.9-18.9,18.9c-3.2,0-5.8-2.6-5.8-5.8c0-2.6,1.4-4.6,5.3-6.9c6.5-3.8,6.5-3.8,5.5-5.7
		c-0.6-1.1-1.4-1.8-2.9-4.3c-1.5-2.6-1.7-3.6-2.3-4.7c-1.1-1.9-1.1-1.9-7.6,1.9c-9.7,5.6-14,12.5-14,21.1c0,12.1,9.8,21.9,21.9,21.9
		c20.1,0,36.4-16.3,36.4-36.4C87.4,22.2,71.1,5.9,51,5.9c-28.2,0-51,22.8-51,51C0,88.1,20.9,109,55.3,109C79,109,90,106.1,113,95.2
		c2.4,11.1,7.3,15.6,7.3,61.6c0,14.6,0,14.6,3.8,14.6c3.6,0,4.9-0.4,8.8-0.4s5.2,0.4,8.8,0.4c3.8,0,3.8,0,3.8-14.6v-31
		c2.1,0.1,4.2,0.2,6.3,0.3v30.7c0,14.6,0,14.6,3.8,14.6c3.6,0,4.9-0.4,8.8-0.4c3.9,0,5.2,0.4,8.8,0.4c3.8,0,3.8,0,3.8-14.6v-28.5
		c8.2,0.8,16.5,1.4,25.9,1.4s17.7-0.6,25.9-1.4v28.5c0,14.6,0,14.6,3.8,14.6c3.6,0,4.9-0.4,8.8-0.4c3.9,0,5.2,0.4,8.8,0.4V1.9
		C245,0.7,239.7,0,234.1,0C219.9,0,217.5,2.1,202.7,2.1z M144.4,40c0,4.7-3.8,8.6-8.6,8.6c-4.7,0-8.6-3.8-8.6-8.6
		c0-4.7,3.8-8.6,8.6-8.6C140.5,31.4,144.4,35.3,144.4,40z M171.5,40c0,4.7-3.8,8.6-8.6,8.6c-4.7,0-8.6-3.8-8.6-8.6
		c0-4.7,3.8-8.6,8.6-8.6S171.5,35.3,171.5,40z"/>
</g>
</svg>
