<?xml version="1.0" encoding="utf-8"?>
<!-- Generator: Adobe Illustrator 26.0.3, SVG Export Plug-In . SVG Version: 6.00 Build 0)  -->
<svg version="1.1" id="Layer_1" xmlns="http://www.w3.org/2000/svg" xmlns:xlink="http://www.w3.org/1999/xlink" x="0px" y="0px"
	 viewBox="0 0 250 171.4" style="enable-background:new 0 0 250 171.4;" xml:space="preserve">
<style type="text/css">
	.st0{fill:#FFFFFF;}
	.st1{fill-rule:evenodd;clip-rule:evenodd;fill:#0099FF;}
	.st2{fill:#4DB8FF;}
</style>
<g>
	<ellipse class="st0" cx="135.8" cy="40" rx="8.6" ry="8.6"/>
	<ellipse class="st0" cx="163" cy="40" rx="8.6" ry="8.6"/>
	<ellipse class="st1" cx="140.1" cy="44.3" rx="7.2" ry="7.1"/>
	<ellipse class="st1" cx="167.3" cy="44.3" rx="7.2" ry="7.1"/>
	<path class="st2" d="M144.4,40c0,4.7-3.8,8.6-8.6,8.6c-4.7,0-8.6-3.8-8.6-8.6c0-4.7,3.8-8.6,8.6-8.6
		C140.6,31.4,144.4,35.3,144.4,40z M171.6,40c0,4.7-3.8,8.6-8.6,8.6c-4.7,0-8.6-3.8-8.6-8.6c0-4.7,3.8-8.6,8.6-8.6
		S171.6,35.3,171.6,40z M151.8,126.1c0,19.8,1.1,22.9,12.8,34.6c10.4,10.4,10.4,10.4,13,7.7c2.5-2.5,3.2-3.8,5.9-6.5s4-3.4,6.5-5.9
		c2.7-2.7,2.7-2.7-7.7-13c-4.1-4.1-5.4-7.7-5.4-14.6c8.3,0.8,16.6,1.4,26,1.4s17.7-0.6,26-1.4v28.5c0,14.6,0,14.6,3.8,14.6
		c3.6,0,4.9-0.4,8.8-0.4c3.9,0,5.2,0.4,8.8,0.4V1.9C245.3,0.7,240,0,234.4,0c-14.2,0-16.6,2.1-31.4,2.1c-15,0-17.4-2.1-31.6-2.1
		c-78.3,0-37,90.4-127,90.4c-8.8,0-8.8,0-8.8,2.5c0,1.4,0.4,2.6,0.4,6.1c0,3.4-0.4,4.6-0.4,6.1c0,2.5,0,2.5,8.8,2.5
		c33.3,0,50.7-3.3,68.7-12.3c2.4,10.6,7.1,16.6,7.1,61.5c0,14.6,0,14.6,3.8,14.6c3.6,0,4.9-0.4,8.8-0.4s5.2,0.4,8.8,0.4
		c3.8,0,3.8,0,3.8-14.6v-31C147.6,125.9,149.7,126,151.8,126.1z"/>
</g>
</svg>
