<?xml version="1.0" encoding="utf-8"?>
<!-- Generator: Adobe Illustrator 26.0.3, SVG Export Plug-In . SVG Version: 6.00 Build 0)  -->
<svg version="1.1" id="Layer_1" xmlns="http://www.w3.org/2000/svg" xmlns:xlink="http://www.w3.org/1999/xlink" x="0px" y="0px"
	 viewBox="0 0 200 114.3" style="enable-background:new 0 0 200 114.3;" xml:space="preserve">
<style type="text/css">
	.st0{fill:#71B894;}
	.st1{fill:#FFFFFF;}
	.st2{fill-rule:evenodd;clip-rule:evenodd;fill:#339966;}
	.st3{fill:#99CCB2;}
	.st4{fill:#339966;}
</style>
<g>
	<path class="st0" d="M52.9,60.6c-0.7,0-1.4-0.3-1.9-1l-10.7-15H19.7C14,44.6,9.4,40,9.4,34.3v-24C9.4,4.6,14.1,0,19.7,0h93.7
		c5.7,0,10.3,4.6,10.3,10.3v24c0,5.7-4.6,10.3-10.3,10.3H55.2v13.7c0,1-0.6,1.9-1.6,2.2C53.3,60.5,53.1,60.6,52.9,60.6z M19.7,4.6
		c-3.2,0-5.7,2.6-5.7,5.7v24c0,3.2,2.6,5.7,5.7,5.7h21.7c0.7,0,1.4,0.4,1.9,1l7.3,10.2v-8.9c0-1.3,1-2.3,2.3-2.3h60.6
		c3.2,0,5.7-2.6,5.7-5.7v-24c0-3.2-2.6-5.7-5.7-5.7C113.5,4.6,19.7,4.6,19.7,4.6z"/>
</g>
<g>
	<path class="st1" d="M85.2,59.4c4.6,0,8.4,3,8.4,6.7s-3.8,6.7-8.4,6.7s-8.4-3-8.4-6.7C76.8,62.4,80.6,59.4,85.2,59.4z"/>
	<path class="st2" d="M85.2,69.7c2.5,0,4.5-1.6,4.5-3.6s-2-3.6-4.5-3.6s-4.5,1.6-4.5,3.6S82.7,69.7,85.2,69.7z"/>
	<path class="st0" d="M160,61.2c15.7,0,28.4,1.1,40,2.6v31c-12.5,0.4-25.8,0.6-40,0.6c-21.7,0-41.2-0.1-58.7-0.3
		C24,114.4,10.6,113.2,8.9,107c-0.3-1.1,0.2-1.6,3.2-2.4c6.3-1.7,19.6-4.5,43.7-10.9C87,85.3,96.5,78.8,99.2,75.2
		c0.3-0.4,0.5-0.9,0.5-1.4c0-1.2-0.7-1.9-2.2-1.9c-5.2,0-5.3,6-50.6,6C7.2,78,0,76.2,0,73.9C0,69,6.5,63.1,12.7,63.1
		c9.4,0,9.4,4.8,29.4,4.8c20.3,0,27.9-10.8,43.2-10.8c12.5,0,15.8,5.2,30.9,5.2C131.4,62.4,140.5,61.2,160,61.2z M76.8,66.1
		c0,3.7,3.8,6.7,8.4,6.7s8.4-3,8.4-6.7c0-3.7-3.8-6.7-8.4-6.7C80.6,59.4,76.8,62.4,76.8,66.1z"/>
	<g>
		<path class="st3" d="M131.8,72.2c-17,0-9.4,19-36.1,19c-2.1,0-3.7,1-3.7,1.9c0,1.3,3.7,3.6,3.7,4.8c0,1.2-3.7,3.5-3.7,4.8
			s3.7,3.6,3.7,4.8c0,1.2-3.7,3.5-3.7,4.8c0,0.9,1.6,1.9,3.7,1.9c27.7,0,48.4-13.9,48.4-29.8C144.1,77.7,138.6,72.2,131.8,72.2z"/>
		<polyline class="st3" points="144.1,84.5 131.8,84.5 131.8,72.2 		"/>
	</g>
</g>
<g>
	<path class="st4" d="M23.6,11.4h5.9l2,14.9h0.1l1.8-13.1h6.9L42,26.3l0,0l2-14.9h5.9l-4.3,20.9h-6.9l-2-13.1h-0.1l-2,13.1h-6.9
		L23.6,11.4z"/>
	<path class="st4" d="M50.7,21.9c0-6.7,4-10.7,10.9-10.7c6.8,0,10.9,4,10.9,10.7s-4,10.7-10.9,10.7S50.7,28.6,50.7,21.9z M66.6,21.9
		c0-3.9-1.7-5.9-5-5.9c-3.3,0-5,2-5,5.9s1.7,5.9,5,5.9C64.9,27.7,66.6,25.7,66.6,21.9z"/>
	<path class="st4" d="M73.2,11.4h5.9l2,14.9h0.1L83,13.1h6.9l1.8,13.1h0.1l2-14.9h5.9l-4.3,20.9h-6.9l-2-13.1h-0.1l-2,13.1h-6.9
		L73.2,11.4z"/>
	<path class="st4" d="M102.1,11.4h6.9l-0.9,13.7H103L102.1,11.4z M102.4,29.7c0-1.8,1.2-2.9,3.1-2.9c2,0,3.1,1.1,3.1,2.9
		s-1.2,2.9-3.1,2.9C103.6,32.6,102.4,31.5,102.4,29.7z"/>
</g>
</svg>
