<?xml version="1.0" encoding="utf-8"?>
<!-- Generator: Adobe Illustrator 26.0.3, SVG Export Plug-In . SVG Version: 6.00 Build 0)  -->
<svg version="1.1" id="Layer_1" xmlns="http://www.w3.org/2000/svg" xmlns:xlink="http://www.w3.org/1999/xlink" x="0px" y="0px"
	 viewBox="0 0 200 114.3" style="enable-background:new 0 0 200 114.3;" xml:space="preserve">
<style type="text/css">
	.st0{fill:#FFFFFF;}
	.st1{fill-rule:evenodd;clip-rule:evenodd;fill:#339966;}
	.st2{fill:#71B894;}
	.st3{fill:#99CCB2;}
</style>
<g>
	<path class="st0" d="M73.7,61.9c0,3.5,4.9,6.7,11.5,6.7s11.5-3.2,11.5-6.7C96.7,61.9,73.7,61.9,73.7,61.9z"/>
	<path class="st1" d="M97.2,61.6c0,2.3-3.3,4.5-7.8,4.5s-7.8-2.2-7.8-4.5H97.2z"/>
	<path class="st2" d="M73.7,61.9c0,3.5,4.9,6.7,11.5,6.7s11.5-3.2,11.5-6.7C96.7,61.9,73.7,61.9,73.7,61.9z M200,63.8v31
		c-12.5,0.4-25.8,0.6-40,0.6c-139.4,0-158.5-5.1-158.5-13c0-1.1,0.6-1.5,3.7-1.5c6.5,0,20.1,0.7,45,0.7c36.3,0,49.5-3.7,49.5-7.8
		c0-1.2-0.7-1.9-2.2-1.9c-5.2,0-5.3,6-50.6,6C7.2,77.9,0,76.1,0,73.8C0,69,6.5,63,12.7,63C22,63,22,67.9,42,67.9
		c20.3,0,27.9-10.8,43.2-10.8c12.5,0,15.8,5.2,30.9,5.2c15.3,0,24.4-1.1,43.9-1.1C175.7,61.2,188.4,62.3,200,63.8z"/>
	<g>
		<path class="st3" d="M116.8,72.2c17,0,9.4,19,36.1,19c2.1,0,3.7,1,3.7,1.9c0,1.3-3.7,3.6-3.7,4.8c0,1.2,3.7,3.5,3.7,4.8
			s-3.7,3.6-3.7,4.8c0,1.2,3.7,3.5,3.7,4.8c0,0.9-1.6,1.9-3.7,1.9c-27.7,0-48.4-13.9-48.4-29.8C104.6,77.7,110.1,72.2,116.8,72.2z"
			/>
		<polyline class="st3" points="104.6,84.4 116.8,84.4 116.8,72.2 		"/>
	</g>
</g>
</svg>
